<?xml version="1.0" standalone="no"?>
<svg viewBox="0 0 200 200" xmlns="http://www.w3.org/2000/svg">
  <path fill="#75C78C" d="M39.2,-68.8C52.2,-60.4,65.2,-52.7,71.8,-41.4C78.5,-30.1,78.9,-15,77.4,-0.9C75.8,13.2,72.3,26.5,65.6,37.9C59,49.3,49.3,58.9,37.8,62.1C26.3,65.4,13.2,62.3,1.3,60C-10.6,57.8,-21.1,56.4,-31.6,52.5C-42.1,48.7,-52.5,42.5,-55.7,33.4C-58.9,24.2,-54.8,12.1,-51.8,1.7C-48.8,-8.6,-46.8,-17.3,-44.8,-28.4C-42.8,-39.6,-40.8,-53.4,-33.3,-65C-25.8,-76.7,-12.9,-86.2,0.1,-86.4C13.1,-86.5,26.2,-77.3,39.2,-68.8Z" transform="translate(100 100)" />
</svg>
